<svg width="10" height="17" viewBox="0 0 10 17" fill="none" xmlns="http://www.w3.org/2000/svg">
<path d="M9.52862 7.29242C9.44481 7.20643 9.35202 7.13386 9.25564 7.07074L2.78769 0.481933C2.15643 -0.160543 1.13336 -0.160848 0.501805 0.482238C-0.129455 1.12502 -0.129455 2.16756 0.501805 2.81095L6.0724 8.48529L0.47367 14.1895C-0.15789 14.832 -0.15789 15.8748 0.47367 16.5182C0.789449 16.8393 1.20281 17 1.61616 17C2.02952 17 2.44378 16.8393 2.75866 16.5176L9.25564 9.89983C9.35202 9.83671 9.44451 9.76445 9.52862 9.67815C9.85188 9.34883 10.0069 8.91645 9.99974 8.48529C10.0072 8.05382 9.85188 7.62083 9.52862 7.29242Z" fill="black"/>
</svg>
