<svg width="18" height="12" viewBox="0 0 18 12" fill="none" xmlns="http://www.w3.org/2000/svg">
<path d="M17.1562 1.90625C16.9688 1.15625 16.375 0.5625 15.6562 0.375C14.3125 0 9 0 9 0C9 0 3.65625 0 2.3125 0.375C1.59375 0.5625 1 1.15625 0.8125 1.90625C0.4375 3.21875 0.4375 6.03125 0.4375 6.03125C0.4375 6.03125 0.4375 8.8125 0.8125 10.1562C1 10.9062 1.59375 11.4688 2.3125 11.6562C3.65625 12 9 12 9 12C9 12 14.3125 12 15.6562 11.6562C16.375 11.4688 16.9688 10.9062 17.1562 10.1562C17.5312 8.8125 17.5312 6.03125 17.5312 6.03125C17.5312 6.03125 17.5312 3.21875 17.1562 1.90625ZM7.25 8.5625V3.5L11.6875 6.03125L7.25 8.5625Z" fill="#707070"/>
</svg>
